<svg xmlns="http://www.w3.org/2000/svg" width="1600" height="900" viewBox="0 0 1600 900" role="img" aria-labelledby="title desc">
  <title id="title">The AI Charter hackathon cover image</title>
  <desc id="desc">A retro-futuristic governance panel showing The AI Charter coordinating ethics, security, legal, compliance, and product agents.</desc>

  <defs>
    <linearGradient id="creamWash" x1="0" y1="0" x2="1" y2="1">
      <stop offset="0%" stop-color="#FAF8F5"/>
      <stop offset="55%" stop-color="#F3EFE5"/>
      <stop offset="100%" stop-color="#E6E1D4"/>
    </linearGradient>
    <linearGradient id="panelGradient" x1="0" y1="0" x2="1" y2="1">
      <stop offset="0%" stop-color="#25303E"/>
      <stop offset="55%" stop-color="#1F2937"/>
      <stop offset="100%" stop-color="#111827"/>
    </linearGradient>
    <linearGradient id="greenGlow" x1="0" y1="0" x2="1" y2="1">
      <stop offset="0%" stop-color="#76E1A7"/>
      <stop offset="100%" stop-color="#8BF5BD"/>
    </linearGradient>
    <linearGradient id="blueGlow" x1="0" y1="0" x2="1" y2="1">
      <stop offset="0%" stop-color="#A1DFF5"/>
      <stop offset="100%" stop-color="#38B0E8"/>
    </linearGradient>
    <radialGradient id="greenAura" cx="50%" cy="50%" r="50%">
      <stop offset="0%" stop-color="#76E1A7" stop-opacity="0.45"/>
      <stop offset="62%" stop-color="#76E1A7" stop-opacity="0.12"/>
      <stop offset="100%" stop-color="#76E1A7" stop-opacity="0"/>
    </radialGradient>
    <radialGradient id="blueAura" cx="50%" cy="50%" r="50%">
      <stop offset="0%" stop-color="#A1DFF5" stop-opacity="0.32"/>
      <stop offset="70%" stop-color="#A1DFF5" stop-opacity="0.08"/>
      <stop offset="100%" stop-color="#A1DFF5" stop-opacity="0"/>
    </radialGradient>
    <filter id="softShadow" x="-20%" y="-20%" width="140%" height="140%">
      <feDropShadow dx="0" dy="28" stdDeviation="28" flood-color="#1F2937" flood-opacity="0.18"/>
    </filter>
    <filter id="greenBlur" x="-40%" y="-40%" width="180%" height="180%">
      <feGaussianBlur stdDeviation="18" result="blur"/>
      <feMerge>
        <feMergeNode in="blur"/>
        <feMergeNode in="SourceGraphic"/>
      </feMerge>
    </filter>
    <pattern id="grid" width="48" height="48" patternUnits="userSpaceOnUse">
      <path d="M 48 0 L 0 0 0 48" fill="none" stroke="#C7C7C7" stroke-width="1" opacity="0.35"/>
    </pattern>
    <pattern id="microGrid" width="16" height="16" patternUnits="userSpaceOnUse">
      <path d="M 16 0 L 0 0 0 16" fill="none" stroke="#C7C7C7" stroke-width="1" opacity="0.18"/>
    </pattern>
    <clipPath id="panelClip">
      <rect x="760" y="118" width="690" height="620" rx="28"/>
    </clipPath>
  </defs>

  <rect width="1600" height="900" fill="url(#creamWash)"/>
  <rect width="1600" height="900" fill="url(#microGrid)" opacity="0.7"/>
  <rect x="72" y="72" width="1456" height="756" rx="36" fill="none" stroke="#C7C7C7" stroke-width="2"/>
  <rect x="88" y="88" width="1424" height="724" rx="28" fill="none" stroke="#C7C7C7" stroke-width="1" stroke-dasharray="10 14"/>
  <path d="M 160 250 C 310 180, 420 188, 520 262" fill="none" stroke="#A1DFF5" stroke-width="3" stroke-linecap="round" opacity="0.35"/>
  <path d="M 150 335 C 290 290, 430 312, 565 405" fill="none" stroke="#76E1A7" stroke-width="3" stroke-linecap="round" opacity="0.32"/>
  <path d="M 190 455 C 340 410, 480 455, 600 550" fill="none" stroke="#38B0E8" stroke-width="3" stroke-linecap="round" opacity="0.26"/>

  <g transform="translate(118 116)">
    <text font-family="Fira Code, ui-monospace, SFMono-Regular, Menlo, monospace" font-size="14" fill="#1F2937" opacity="0.68" letter-spacing="3">HACKATHON SUBMISSION</text>
    <text x="0" y="84" font-family="Inter, Arial, sans-serif" font-size="68" font-weight="900" fill="#1F2937" letter-spacing="-3">THE AI</text>
    <text x="0" y="154" font-family="Inter, Arial, sans-serif" font-size="68" font-weight="900" fill="#1F2937" letter-spacing="-3">CHARTER</text>
    <text x="4" y="224" font-family="Fira Code, ui-monospace, SFMono-Regular, Menlo, monospace" font-size="18" fill="#76E1A7" font-weight="800" letter-spacing="2">COLLABORATIVE MULTI-AGENT GOVERNANCE</text>
    <text x="4" y="277" font-family="Inter, Arial, sans-serif" font-size="24" fill="#1F2937" font-weight="650">Transparent review for high-stakes AI features.</text>
    <text x="4" y="324" font-family="Inter, Arial, sans-serif" font-size="21" fill="#1F2937" opacity="0.72">Ethics, security, legal, compliance, and product agents</text>
    <text x="4" y="356" font-family="Inter, Arial, sans-serif" font-size="21" fill="#1F2937" opacity="0.72">turn proposals into a visible audit ledger.</text>

    <g transform="translate(4 420)">
      <rect width="520" height="132" rx="26" fill="#1F2937" opacity="0.96"/>
      <rect x="1" y="1" width="518" height="130" rx="25" fill="none" stroke="#C7C7C7" stroke-opacity="0.35"/>
      <circle cx="38" cy="38" r="7" fill="#EF4444" opacity="0.85"/>
      <circle cx="64" cy="38" r="7" fill="#F59E0B" opacity="0.85"/>
      <circle cx="90" cy="38" r="7" fill="#22C55E" opacity="0.85"/>
      <text x="124" y="43" font-family="Fira Code, ui-monospace, SFMono-Regular, Menlo, monospace" font-size="14" fill="#FAF8F5" opacity="0.58" letter-spacing="1">governance_review.py</text>
      <text x="38" y="82" font-family="Fira Code, ui-monospace, SFMono-Regular, Menlo, monospace" font-size="18" fill="#A1DFF5">❯ proposal.review()</text>
      <text x="38" y="112" font-family="Fira Code, ui-monospace, SFMono-Regular, Menlo, monospace" font-size="18" fill="#76E1A7">✓ audit ledger generated</text>
    </g>

    <g transform="translate(4 596)">
      <text font-family="Fira Code, ui-monospace, SFMono-Regular, Menlo, monospace" font-size="13" fill="#1F2937" opacity="0.55" letter-spacing="2">TEAM BROKERBOTICS</text>
      <text x="0" y="34" font-family="Inter, Arial, sans-serif" font-size="24" font-weight="800" fill="#1F2937">Responsible AI deployment, made inspectable.</text>
    </g>
  </g>

  <g transform="translate(760 118)" filter="url(#softShadow)">
    <rect width="690" height="620" rx="28" fill="url(#panelGradient)"/>
    <rect x="1" y="1" width="688" height="618" rx="27" fill="none" stroke="#C7C7C7" stroke-opacity="0.35"/>
    <rect width="690" height="68" rx="28" fill="#171E29"/>
    <rect y="67" width="690" height="1" fill="#C7C7C7" opacity="0.25"/>
    <circle cx="34" cy="34" r="7" fill="#EF4444" opacity="0.9"/>
    <circle cx="60" cy="34" r="7" fill="#F59E0B" opacity="0.9"/>
    <circle cx="86" cy="34" r="7" fill="#22C55E" opacity="0.9"/>
    <text x="126" y="39" font-family="Fira Code, ui-monospace, SFMono-Regular, Menlo, monospace" font-size="13" fill="#FAF8F5" opacity="0.55" letter-spacing="1.5">LIVE GOVERNANCE PANEL</text>
    <circle cx="616" cy="34" r="7" fill="#76E1A7" filter="url(#greenBlur)"/>
    <text x="532" y="39" text-anchor="end" font-family="Fira Code, ui-monospace, SFMono-Regular, Menlo, monospace" font-size="12" fill="#76E1A7" opacity="0.8" letter-spacing="1">session active</text>
  </g>

  <g clip-path="url(#panelClip)">
    <rect x="760" y="118" width="690" height="620" fill="url(#grid)" opacity="0.24"/>
    <circle cx="1100" cy="425" r="250" fill="url(#greenAura)"/>
    <circle cx="1100" cy="425" r="190" fill="none" stroke="#76E1A7" stroke-width="2" opacity="0.25"/>
    <circle cx="1100" cy="425" r="128" fill="none" stroke="#A1DFF5" stroke-width="2" opacity="0.25"/>
    <path d="M1100 260 L1100 302" stroke="#76E1A7" stroke-width="2" opacity="0.55"/>
    <path d="M1100 548 L1100 590" stroke="#76E1A7" stroke-width="2" opacity="0.55"/>
    <path d="M940 425 L978 425" stroke="#A1DFF5" stroke-width="2" opacity="0.45"/>
    <path d="M1222 425 L1260 425" stroke="#A1DFF5" stroke-width="2" opacity="0.45"/>
    <path d="M988 313 L1016 339" stroke="#76E1A7" stroke-width="2" opacity="0.45"/>
    <path d="M1212 313 L1184 339" stroke="#76E1A7" stroke-width="2" opacity="0.45"/>
    <path d="M988 537 L1016 511" stroke="#76E1A7" stroke-width="2" opacity="0.45"/>
    <path d="M1212 537 L1184 511" stroke="#76E1A7" stroke-width="2" opacity="0.45"/>

    <g transform="translate(1100 425)">
      <rect x="-86" y="-86" width="172" height="172" rx="34" fill="#FAF8F5" opacity="0.98"/>
      <rect x="-84" y="-84" width="168" height="168" rx="32" fill="none" stroke="#76E1A7" stroke-width="3"/>
      <text x="0" y="-12" text-anchor="middle" font-family="Inter, Arial, sans-serif" font-size="30" font-weight="900" fill="#1F2937">AI</text>
      <text x="0" y="25" text-anchor="middle" font-family="Inter, Arial, sans-serif" font-size="30" font-weight="900" fill="#1F2937">CHARTER</text>
      <text x="0" y="58" text-anchor="middle" font-family="Fira Code, ui-monospace, SFMono-Regular, Menlo, monospace" font-size="12" fill="#76E1A7" letter-spacing="2">CONSENSUS</text>
    </g>

    <g transform="translate(1100 222)">
      <rect x="-70" y="-34" width="140" height="68" rx="18" fill="#1F2937" opacity="0.96"/>
      <rect x="-69" y="-33" width="138" height="66" rx="17" fill="none" stroke="#76E1A7" stroke-opacity="0.65"/>
      <text x="0" y="8" text-anchor="middle" font-family="Fira Code, ui-monospace, SFMono-Regular, Menlo, monospace" font-size="13" fill="#76E1A7" font-weight="800" letter-spacing="1">ETHICS</text>
    </g>

    <g transform="translate(1252 313)">
      <rect x="-70" y="-34" width="140" height="68" rx="18" fill="#1F2937" opacity="0.96"/>
      <rect x="-69" y="-33" width="138" height="66" rx="17" fill="none" stroke="#76E1A7" stroke-opacity="0.65"/>
      <text x="0" y="8" text-anchor="middle" font-family="Fira Code, ui-monospace, SFMono-Regular, Menlo, monospace" font-size="13" fill="#76E1A7" font-weight="800" letter-spacing="1">SECURITY</text>
    </g>

    <g transform="translate(1252 537)">
      <rect x="-70" y="-34" width="140" height="68" rx="18" fill="#1F2937" opacity="0.96"/>
      <rect x="-69" y="-33" width="138" height="66" rx="17" fill="none" stroke="#A1DFF5" stroke-opacity="0.65"/>
      <text x="0" y="8" text-anchor="middle" font-family="Fira Code, ui-monospace, SFMono-Regular, Menlo, monospace" font-size="13" fill="#A1DFF5" font-weight="800" letter-spacing="1">LEGAL</text>
    </g>

    <g transform="translate(1100 628)">
      <rect x="-78" y="-34" width="156" height="68" rx="18" fill="#1F2937" opacity="0.96"/>
      <rect x="-77" y="-33" width="154" height="66" rx="17" fill="none" stroke="#76E1A7" stroke-opacity="0.65"/>
      <text x="0" y="8" text-anchor="middle" font-family="Fira Code, ui-monospace, SFMono-Regular, Menlo, monospace" font-size="13" fill="#76E1A7" font-weight="800" letter-spacing="1">COMPLIANCE</text>
    </g>

    <g transform="translate(948 537)">
      <rect x="-70" y="-34" width="140" height="68" rx="18" fill="#1F2937" opacity="0.96"/>
      <rect x="-69" y="-33" width="138" height="66" rx="17" fill="none" stroke="#A1DFF5" stroke-opacity="0.65"/>
      <text x="0" y="8" text-anchor="middle" font-family="Fira Code, ui-monospace, SFMono-Regular, Menlo, monospace" font-size="13" fill="#A1DFF5" font-weight="800" letter-spacing="1">PRODUCT</text>
    </g>

    <g transform="translate(948 313)">
      <rect x="-70" y="-34" width="140" height="68" rx="18" fill="#1F2937" opacity="0.96"/>
      <rect x="-69" y="-33" width="138" height="66" rx="17" fill="none" stroke="#76E1A7" stroke-opacity="0.65"/>
      <text x="0" y="8" text-anchor="middle" font-family="Fira Code, ui-monospace, SFMono-Regular, Menlo, monospace" font-size="13" fill="#76E1A7" font-weight="800" letter-spacing="1">SYSTEM</text>
    </g>

    <g transform="translate(814 184)">
      <rect width="522" height="150" rx="24" fill="#171E29" opacity="0.94"/>
      <text x="28" y="43" font-family="Fira Code, ui-monospace, SFMono-Regular, Menlo, monospace" font-size="15" fill="#FAF8F5" opacity="0.65">SYSTEM</text>
      <text x="28" y="78" font-family="Fira Code, ui-monospace, SFMono-Regular, Menlo, monospace" font-size="15" fill="#76E1A7">Initializing agent review for AI feature proposal...</text>
      <text x="28" y="113" font-family="Fira Code, ui-monospace, SFMono-Regular, Menlo, monospace" font-size="15" fill="#A1DFF5">Consensus path: ethics, security, legal, compliance, product.</text>
    </g>

    <g transform="translate(814 656)">
      <rect width="522" height="82" rx="20" fill="#171E29" opacity="0.94"/>
      <text x="28" y="36" font-family="Fira Code, ui-monospace, SFMono-Regular, Menlo, monospace" font-size="15" fill="#76E1A7">✓ VERDICT: CONDITIONAL_APPROVAL</text>
      <text x="28" y="64" font-family="Fira Code, ui-monospace, SFMono-Regular, Menlo, monospace" font-size="13" fill="#FAF8F5" opacity="0.55">Governance record generated with reviewer votes and rationale.</text>
    </g>
  </g>

  <g transform="translate(1212 760)">
    <rect x="-166" y="-28" width="332" height="56" rx="28" fill="#76E1A7"/>
    <text x="0" y="9" text-anchor="middle" font-family="Inter, Arial, sans-serif" font-size="18" font-weight="900" fill="#1F2937" letter-spacing="1">VIEW AUDIT LEDGER</text>
  </g>

  <g transform="translate(118 828)">
    <text font-family="Fira Code, ui-monospace, SFMono-Regular, Menlo, monospace" font-size="13" fill="#1F2937" opacity="0.55" letter-spacing="2">CROSS-AGENT REVIEW / AUDIT LEDGER / GOVERNANCE RECORD</text>
  </g>
  <text x="1530" y="118" text-anchor="end" font-family="Fira Code, ui-monospace, SFMono-Regular, Menlo, monospace" font-size="28" fill="#C7C7C7" opacity="0.85">+</text>
  <text x="1530" y="804" text-anchor="end" font-family="Fira Code, ui-monospace, SFMono-Regular, Menlo, monospace" font-size="28" fill="#C7C7C7" opacity="0.85">+</text>
  <text x="70" y="118" font-family="Fira Code, ui-monospace, SFMono-Regular, Menlo, monospace" font-size="28" fill="#C7C7C7" opacity="0.85">+</text>
  <text x="70" y="804" font-family="Fira Code, ui-monospace, SFMono-Regular, Menlo, monospace" font-size="28" fill="#C7C7C7" opacity="0.85">+</text>
</svg>
